<svg xmlns="http://www.w3.org/2000/svg" id="hola_vpn" width="94.099" height="26" data-name="hola!vpn" viewBox="0 0 94.099 26">
    <defs>
        <style>
            .cls-1{fill:#40474f}.cls-2{fill:url(#radial-gradient)}.cls-3{fill:#fd0}.cls-3,.cls-7{opacity:.2}.cls-4{fill:#9d0b0f;opacity:.3}.cls-10,.cls-5,.cls-9{opacity:.5}.cls-6{fill:#ec1c24;opacity:.8}.cls-8{fill:#ef4e23}.cls-9{fill:#f05a22}.cls-10{fill:#c3161c}.cls-11{fill:#231f20}
        </style>
        <radialGradient id="radial-gradient" cx="11.085" cy="19.574" r="14.402" gradientTransform="matrix(1.376 0 0 1.368 -4.168 -7.209)" gradientUnits="userSpaceOnUse">
            <stop offset=".05" stop-color="#fbae17"/>
            <stop offset=".174" stop-color="#f6921e"/>
            <stop offset=".4" stop-color="#f16522"/>
            <stop offset=".63" stop-color="#d71921"/>
            <stop offset=".797" stop-color="#c3161c"/>
            <stop offset=".956" stop-color="#b01117"/>
        </radialGradient>
    </defs>
    <path id="Path_37424" d="M63.9 16.194c.055-.526.3-4.779.535-6.375a2.1 2.1 0 0 1 1.185-1.771 1.845 1.845 0 0 1 1.974.36 1.541 1.541 0 0 1 .415 1.116 4.216 4.216 0 0 1-.12 1.476c-.175 1.061-1.116 5.139-1.411 6.144a2.14 2.14 0 0 1-.655 1.116 1.089 1.089 0 0 1-1.181.12c-.59-.231-.71-.821-.766-1.411a1.845 1.845 0 0 1 0-.775zm-1.126 5.314a1.983 1.983 0 0 1 .923-1.947 1.845 1.845 0 0 1 2.362.471 1.771 1.771 0 0 1 .065 2.186 1.919 1.919 0 0 1-1.061.59 1.181 1.181 0 0 1-.655.12 1.845 1.845 0 0 1-1.6-1.421z" class="cls-1" data-name="Path 37424" transform="translate(-4.861 -.612)"/>
    <path id="Path_37425" d="M52.645 21.911a2.675 2.675 0 0 1-1.006-2.242 2.768 2.768 0 0 1 1.061-2.121 3.69 3.69 0 0 1 2.537-.59c1.006 0 1.365 0 2.306-.065l.71-.055v-.055a1.5 1.5 0 0 0-.065-.535c-.055-.415-.923-1.006-1.947-.923a4.262 4.262 0 0 0-1.181.535c-1.707.923-2.3-.923-1.771-1.6a3 3 0 0 1 2.311-1.122 7.38 7.38 0 0 1 2.768.3 4.188 4.188 0 0 1 2.186 1.3 3.69 3.69 0 0 1 .535 2.6c-.12 1-.415 2-.59 3.007a11.294 11.294 0 0 0-.065 1.476 2.02 2.02 0 0 1-.157 1.338 1.328 1.328 0 0 1-1.845.231c-.111-.055-.175-.175-.231-.231-.175-.3-.36-.59-.535-.923a5.618 5.618 0 0 1-2.952.59 4.751 4.751 0 0 1-2.067-.913zm1.891-2.186a.978.978 0 0 0 .923 1.006 1.974 1.974 0 0 0 1.707-.415 2.426 2.426 0 0 0 .71-1.531c-.71.055-1.845.055-2.177.055s-1.107.239-1.163.885z" class="cls-1" data-name="Path 37425" transform="translate(-3.999 -1.016)"/>
    <path id="Path_37426" d="M46.9 12.371a12.27 12.27 0 0 1-.055-1.421 1.467 1.467 0 0 1 1.3-1.421 1.578 1.578 0 0 1 1.531 1.181c.065.36.065.923.12 1.421 0 0 .71 8.5.71 8.856a1.614 1.614 0 0 1-1.3 1.771c-1.3.055-1.531-.923-1.651-1.541z" class="cls-1" data-name="Path 37426" transform="translate(-3.628 -.738)"/>
    <path id="Path_37427" d="M45.029 18.8a4.936 4.936 0 0 1-2.362 3.69A5.166 5.166 0 0 1 38 22.427a4.687 4.687 0 0 1-1.771-1.651 4.2 4.2 0 0 1-.59-2.657 5.065 5.065 0 0 1 2.011-4.013 5.212 5.212 0 0 1 4.613-.415 4.29 4.29 0 0 1 2.768 4.022 10.875 10.875 0 0 0-.055 1.116zm-2.768-.415a3.561 3.561 0 0 0-.3-2.067 1.845 1.845 0 0 0-2.011-.646 2.445 2.445 0 0 0-1.35 1.847 3.469 3.469 0 0 0 .3 2.537 1.771 1.771 0 0 0 2.482.3.055.055 0 0 0 .055-.055 3.57 3.57 0 0 0 .923-2.186.277.277 0 0 0-.055.3z" class="cls-1" data-name="Path 37427" transform="translate(-2.758 -1.033)"/>
    <path id="Path_37428" d="M32.319 13.519a3.912 3.912 0 0 1 1.126 2.186c.175 1.006.47 4.133.535 4.613a2.14 2.14 0 0 1-.185 1.356 1.5 1.5 0 0 1-1.845.655c-.821-.36-.923-1.421-.923-2.131-.12-1.061-.175-2.066-.3-3.063-.12-.83-.3-1.891-1.3-1.845a1.845 1.845 0 0 0-1.578 1.162 4.742 4.742 0 0 0-.065 1.3c.065.535.24 2.417.3 2.888a6.633 6.633 0 0 1 .065 1.126 1.578 1.578 0 0 1-1.421 1.3 1.319 1.319 0 0 1-.923-.36 1.956 1.956 0 0 1-.535-1.116c-.175-1.006-.83-8.386-1.006-9.392a2.823 2.823 0 0 1 .065-1.411 1.356 1.356 0 0 1 .7-.71 1.5 1.5 0 0 1 1.125-.055 1.365 1.365 0 0 1 .83.923 27.9 27.9 0 0 1 .406 3.127 3.063 3.063 0 0 1 .655-.59 3.607 3.607 0 0 1 4.274.037z" class="cls-1" data-name="Path 37428" transform="translate(-1.875 -.77)"/>
    <path id="Path_37429" d="M79.738 12.06a.544.544 0 0 1-.055.3L76.26 22.688c-.065.24-.415.36-.923.36h-.923c-.471 0-.83-.065-.923-.36l-3.486-10.333a.544.544 0 0 1-.055-.3c0-.231.3-.351 1.006-.351h.526a.923.923 0 0 1 .923.47l2.177 6.965.185.59h.055l.175-.59 2.38-6.965a.923.923 0 0 1 .923-.47h.471c.672.005.967.125.967.356z" class="cls-1" data-name="Path 37429" transform="translate(-5.418 -.906)"/>
    <path id="Path_37430" d="M89.767 15.257a3.487 3.487 0 0 1-3.69 3.543h-1.688v3.69c0 .351-.3.535-.923.535h-.544c-.646 0-.923-.185-.923-.535V12.425a.554.554 0 0 1 .471-.655h3.543c1.392 0 3.754.415 3.754 3.487zm-5.378-1.43v2.841h1.421a1.264 1.264 0 0 0 1.356-1.126V15.3a1.264 1.264 0 0 0-1.116-1.411h-1.661z" class="cls-1" data-name="Path 37430" transform="translate(-6.35 -.912)"/>
    <path id="Path_37431" d="M101.225 12.244v10.268c0 .351-.3.535-.923.535h-.59a1.2 1.2 0 0 1-1.07-.415l-4.308-6.615v6.458c0 .351-.3.535-.923.535h-.489c-.655 0-.923-.185-.923-.535V12.244c0-.36.3-.535.923-.535h.71a1.19 1.19 0 0 1 1.061.415l3.764 5.84.415.655v-6.375c0-.36.3-.535.923-.535h.507c.628 0 .923.175.923.535z" class="cls-1" data-name="Path 37431" transform="translate(-7.126 -.906)"/>
    <g id="Group_546" data-name="Group 546">
        <g id="Group_348" data-name="Group 348">
            <path id="Body_1_" d="M18.881 16.59a22.328 22.328 0 0 0-1.052-6.5 5.224 5.224 0 0 1 .557-3.467s-.5 0-1.733 1.114a3.609 3.609 0 0 0-1.238 2.538c-1.424-3.343-4.333-5.51-5.448-7A3.717 3.717 0 0 1 9.657 0C7.49.929 6.376 3.281 6 6.067A5.1 5.1 0 0 1 3.9 9.9C3.59 7.3.681 6.624.681 6.624c.619.186 1.671 3.219.557 5.386A10.369 10.369 0 0 0 0 16.59C0 21.79 3.281 26 9.41 26a9.192 9.192 0 0 0 9.471-9.41z" class="cls-2"/>
            <path id="RH_large_shade_1_" d="M23.4 10.152a5.224 5.224 0 0 1 .557-3.467s-.5 0-1.733 1.114a3.609 3.609 0 0 0-1.238 2.538c-1.424-3.343-4.333-5.51-5.448-7A3.631 3.631 0 0 1 15.225 0c-.557 1.052-1.733 2.91 2.167 7.181 4.829 4.7 6.562 7.924 5.633 12.629-.557 2.786-2.167 3.776-4.333 5.448h-.062a9.187 9.187 0 0 0 5.881-8.79 21.468 21.468 0 0 0-1.111-6.316z" class="cls-3" transform="translate(-5.568)"/>
            <path id="LH_large_shade_1_" d="M0 16.59a9.725 9.725 0 0 0 1.919 6.067c-.929-2.167-1.733-5.633-.5-8.11C3.776 9.9 7.367 9.843 7.3 6.067A8.43 8.43 0 0 1 9.719 0C7.552.929 6.438 3.281 6.067 6.067A5.1 5.1 0 0 1 3.962 9.9C3.652 7.3.743 6.624.743 6.624c.619.186 1.671 3.219.557 5.386A9.7 9.7 0 0 0 0 16.59z" class="cls-4"/>
            <g id="Group_344" class="cls-5" data-name="Group 344" transform="translate(.062 6.624)">
                <path id="Path_7230" d="M2.267 15.59c.681-2.352-.8-4.7-1.486-4.89.619.248 1.671 3.219.557 5.386A10.369 10.369 0 0 0 .1 20.667a10.239 10.239 0 0 0 1.733 5.819c-3.095-6.315-.309-8.605.434-10.896z" class="cls-6" data-name="Path 7230" transform="translate(-.1 -10.7)"/>
            </g>
            <g id="Group_345" class="cls-7" data-name="Group 345" transform="translate(12.629 6.686)">
                <path id="Path_7231" d="M25.6 14.267a5.224 5.224 0 0 1 .557-3.467c-1.114 1.486-1.548 2.6-.557 6.562 1.671 5.819-.5 10.152-5.2 12.257a9.165 9.165 0 0 0 6.314-8.919 21.584 21.584 0 0 0-1.114-6.433z" class="cls-8" data-name="Path 7231" transform="translate(-20.4 -10.8)"/>
            </g>
            <path id="LH_ear_1_" d="M1.1 10.7a4.008 4.008 0 0 1 2.662 3.529 1.587 1.587 0 0 0 .557-.248C4.071 11.319 1.1 10.7 1.1 10.7z" class="cls-9" transform="translate(-.419 -4.076)"/>
            <path id="RH_ear_1_" d="M25.271 15.01c.31-.124-.062-2.414 2.6-4.21 0 0-.5 0-1.733 1.114a3.609 3.609 0 0 0-1.238 2.538s.31.496.371.558z" class="cls-10" transform="translate(-9.486 -4.114)"/>
            <g id="Mouth_1_" transform="translate(2.414 17.21)">
                <path id="Mouth_2_" d="M17.024 27.8a6.067 6.067 0 0 1-12.133 0H3.9a7.057 7.057 0 0 0 14.114 0z" class="cls-11" transform="translate(-3.9 -27.8)"/>
            </g>
            <g id="Eyes_1_" transform="translate(4.829 13.495)">
                <g id="Group_346" data-name="Group 346" transform="translate(6.686)">
                    <ellipse id="Ellipse_68" cx="1.3" cy="1.857" class="cls-11" data-name="Ellipse 68" rx="1.3" ry="1.857"/>
                </g>
                <g id="Group_347" data-name="Group 347">
                    <ellipse id="Ellipse_69" cx="1.3" cy="1.857" class="cls-11" data-name="Ellipse 69" rx="1.3" ry="1.857"/>
                </g>
            </g>
        </g>
    </g>
</svg>

