<svg xmlns="http://www.w3.org/2000/svg" id="ic_hide" width="16" height="16" viewBox="0 0 16 16">
    <defs>
        <style>
            .cls-1{fill:none}.cls-2{fill:#009cd6}
        </style>
    </defs>
    <path id="Rectangle_1142" d="M0 0h16v16H0z" class="cls-1" data-name="Rectangle 1142"/>
    <g id="Group_1574" data-name="Group 1574">
        <path id="Path_37444" d="M.716 2.268l.922-.94 12.929 13.154-.921.939-2.146-2.157-.307-.313a8.336 8.336 0 0 1-3.173.626 8.235 8.235 0 0 1-4.878-1.548A8.648 8.648 0 0 1 0 8.009a8.391 8.391 0 0 1 2.729-3.688l-.341-.348zm4.026 4.106a3.8 3.8 0 0 0-.375 1.635 3.621 3.621 0 0 0 1.074 2.628 3.48 3.48 0 0 0 2.576 1.1 3.367 3.367 0 0 0 1.6-.418l-1.122-1.152a1.941 1.941 0 0 1-.478.069 2.087 2.087 0 0 1-1.552-.643 2.174 2.174 0 0 1-.631-1.584 3.477 3.477 0 0 1 .034-.487zm3.275-2.088a3.327 3.327 0 0 0-1.33.279l-1.57-1.6a8.138 8.138 0 0 1 2.866-.522 8.237 8.237 0 0 1 4.878 1.547A8.667 8.667 0 0 1 16 8.009a8.324 8.324 0 0 1-2.49 3.515l-2.116-2.158a3.963 3.963 0 0 0 .239-1.357 3.655 3.655 0 0 0-1.057-2.627 3.429 3.429 0 0 0-2.559-1.096zm-.136 1.5h.136a2.078 2.078 0 0 1 1.535.662 2.16 2.16 0 0 1 .648 1.561l-.034.139z" class="cls-2" data-name="Path 37444"/>
    </g>
</svg>
