<svg xmlns="http://www.w3.org/2000/svg" id="ic_info" width="24" height="24" viewBox="0 0 24 24">
    <defs>
        <style>
            .cls-1{fill:none}.cls-2{fill:#ffbe00}
        </style>
    </defs>
    <path id="Rectangle_1138" d="M0 0h24v24H0z" class="cls-1" data-name="Rectangle 1138"/>
    <g id="Group_1572" data-name="Group 1572" transform="translate(1.992 2.016)">
        <path id="Path_37442" d="M4.922 4.945A9.646 9.646 0 0 1 12 2.016a9.646 9.646 0 0 1 7.078 2.929A9.618 9.618 0 0 1 22.008 12a9.618 9.618 0 0 1-2.93 7.055A9.646 9.646 0 0 1 12 21.984a9.646 9.646 0 0 1-7.078-2.929A9.618 9.618 0 0 1 1.992 12a9.618 9.618 0 0 1 2.93-7.055zm1.43 12.727A7.7 7.7 0 0 0 12 20.016a7.7 7.7 0 0 0 5.648-2.344A7.725 7.725 0 0 0 19.992 12a7.725 7.725 0 0 0-2.344-5.672A7.7 7.7 0 0 0 12 3.984a7.7 7.7 0 0 0-5.648 2.344A7.725 7.725 0 0 0 4.008 12a7.725 7.725 0 0 0 2.344 5.672zM10.992 9V6.984h2.016V9zm0 8.016v-6h2.016v6z" class="cls-2" data-name="Path 37442" transform="translate(-1.992 -2.016)"/>
    </g>
</svg>
