<svg xmlns="http://www.w3.org/2000/svg" id="ic_renew" viewBox="0 0 13 13">
    <defs>
        <style>
            .cls-1{fill:#fff}
        </style>
    </defs>
    <path id="Path_37142" d="M6.5 13a6.5 6.5 0 1 1 5.93-9.16.5.5 0 1 1-.91.41 5.5 5.5 0 1 0 .4 3.18.514.514 0 0 1 .58-.41.5.5 0 0 1 .41.58A6.479 6.479 0 0 1 6.5 13z" class="cls-1" data-name="Path 37142"/>
    <path id="Path_37143" d="M12.5 5a.254.254 0 0 1-.12-.02l-4-1a.483.483 0 0 1-.36-.6.5.5 0 0 1 .61-.36l3.37.84V.5a.5.5 0 0 1 1 0v4a.493.493 0 0 1-.19.39.51.51 0 0 1-.31.11z" class="cls-1" data-name="Path 37143"/>
</svg>
