<svg xmlns="http://www.w3.org/2000/svg" id="ic_upgrade" viewBox="0 0 13 13">
    <defs>
        <style>
            .cls-1{fill:#fff}
        </style>
    </defs>
    <g id="Group_1513" data-name="Group 1513">
        <path id="Path_37139" d="M6.5 1A5.5 5.5 0 1 1 1 6.5 5.51 5.51 0 0 1 6.5 1m0-1A6.5 6.5 0 1 0 13 6.5 6.5 6.5 0 0 0 6.5 0z" class="cls-1" data-name="Path 37139"/>
    </g>
    <path id="Path_37140" d="M6.5 10a.5.5 0 0 1-.5-.5v-6a.5.5 0 0 1 .31-.46.474.474 0 0 1 .54.11l3 3a.5.5 0 0 1-.71.71L7 4.71V9.5a.5.5 0 0 1-.5.5z" class="cls-1" data-name="Path 37140"/>
    <path id="Path_37141" d="M3.5 7a.469.469 0 0 1-.35-.15.5.5 0 0 1 0-.71l3-3a.5.5 0 1 1 .71.71l-3 3A.508.508 0 0 1 3.5 7z" class="cls-1" data-name="Path 37141"/>
</svg>
