<svg xmlns="http://www.w3.org/2000/svg" width="32" height="22" viewBox="0 0 32 22">
    <defs>
        <style>
            .cls-1{fill:#32326f}.cls-2{fill:#f22f12}.cls-3{fill:#f79f1a}.cls-4{fill:#ff5f01}
        </style>
    </defs>
    <g id="mastercard" transform="translate(0 -1)">
        <path id="Path_7508" d="M29 1H3a3 3 0 0 0-3 3v16a3 3 0 0 0 3 3h26a3 3 0 0 0 3-3V4a3 3 0 0 0-3-3z" class="cls-1" data-name="Path 7508"/>
        <path id="Path_7509" d="M11.7 5.4a6.59 6.59 0 1 1-4.67 1.93A6.6 6.6 0 0 1 11.7 5.4" class="cls-2" data-name="Path 7509"/>
        <path id="Path_7510" d="M20.5 5.5a6.5 6.5 0 1 1-6.6 6.5 6.57 6.57 0 0 1 6.6-6.5" class="cls-3" data-name="Path 7510"/>
        <path id="Path_7511" d="M13.9 12a6.23 6.23 0 0 1 2.2-4.8 6.35 6.35 0 0 1 .6 9l-.6.6a6.24 6.24 0 0 1-2.2-4.8" class="cls-4" data-name="Path 7511"/>
    </g>
</svg>
