<svg xmlns="http://www.w3.org/2000/svg" id="hola_vpn" width="86.861" height="24" viewBox="0 0 86.861 24">
    <defs>
        <style>
            .cls-1{fill:#40474f}.cls-2{fill:url(#radial-gradient)}.cls-3{fill:#fd0}.cls-3,.cls-7{opacity:.2}.cls-4{fill:#9d0b0f;opacity:.3}.cls-10,.cls-5,.cls-9{opacity:.5}.cls-6{fill:#ec1c24;opacity:.8}.cls-8{fill:#ef4e23}.cls-9{fill:#f05a22}.cls-10{fill:#c3161c}.cls-11{fill:#231f20}
        </style>
        <radialGradient id="radial-gradient" cx="10.233" cy="18.068" r="13.294" gradientTransform="matrix(1.376 0 0 1.368 -3.847 -6.655)" gradientUnits="userSpaceOnUse">
            <stop offset=".05" stop-color="#fbae17"/>
            <stop offset=".174" stop-color="#f6921e"/>
            <stop offset=".4" stop-color="#f16522"/>
            <stop offset=".63" stop-color="#d71921"/>
            <stop offset=".797" stop-color="#c3161c"/>
            <stop offset=".956" stop-color="#b01117"/>
        </radialGradient>
    </defs>
    <path id="Path_37424" d="M63.816 15.557c.051-.485.273-4.411.494-5.884a1.942 1.942 0 0 1 1.09-1.636 1.7 1.7 0 0 1 1.822.332 1.422 1.422 0 0 1 .383 1.03 3.892 3.892 0 0 1-.111 1.363c-.162.979-1.03 4.743-1.3 5.672a1.976 1.976 0 0 1-.6 1.03 1 1 0 0 1-1.09.111c-.545-.213-.656-.758-.707-1.3a1.7 1.7 0 0 1 0-.715zm-1.039 4.905a1.831 1.831 0 0 1 .852-1.8 1.7 1.7 0 0 1 2.18.434 1.635 1.635 0 0 1 .06 2.018 1.771 1.771 0 0 1-.979.545 1.09 1.09 0 0 1-.6.111 1.7 1.7 0 0 1-1.473-1.311z" class="cls-1" data-name="Path 37424" transform="translate(-9.315 -1.173)"/>
    <path id="Path_37425" d="M52.568 21.234a2.47 2.47 0 0 1-.928-2.069 2.555 2.555 0 0 1 .979-1.959 3.406 3.406 0 0 1 2.342-.545c.928 0 1.26 0 2.129-.06l.656-.051v-.05a1.379 1.379 0 0 0-.06-.494c-.051-.383-.852-.928-1.8-.852a3.934 3.934 0 0 0-1.09.494c-1.575.852-2.12-.852-1.635-1.473a2.768 2.768 0 0 1 2.129-1.039 6.813 6.813 0 0 1 2.555.273 3.866 3.866 0 0 1 2.018 1.2 3.406 3.406 0 0 1 .494 2.4c-.111.92-.383 1.848-.545 2.776a10.425 10.425 0 0 0-.06 1.363 1.865 1.865 0 0 1-.145 1.235 1.226 1.226 0 0 1-1.7.213c-.1-.051-.162-.162-.213-.213-.162-.273-.332-.545-.494-.852a5.186 5.186 0 0 1-2.725.545 4.386 4.386 0 0 1-1.908-.843zm1.746-2.018a.9.9 0 0 0 .852.928 1.822 1.822 0 0 0 1.575-.383 2.24 2.24 0 0 0 .656-1.414c-.656.051-1.7.051-2.01.051s-1.023.222-1.074.818z" class="cls-1" data-name="Path 37425" transform="translate(-7.664 -1.946)"/>
    <path id="Path_37426" d="M46.891 12.153a11.326 11.326 0 0 1-.051-1.311 1.354 1.354 0 0 1 1.2-1.311 1.456 1.456 0 0 1 1.414 1.09c.06.332.06.852.111 1.311 0 0 .656 7.843.656 8.175a1.49 1.49 0 0 1-1.2 1.635c-1.2.051-1.414-.852-1.524-1.422z" class="cls-1" data-name="Path 37426" transform="translate(-6.952 -1.414)"/>
    <path id="Path_37427" d="M44.3 18.381a4.556 4.556 0 0 1-2.18 3.406 4.769 4.769 0 0 1-4.309-.06 4.326 4.326 0 0 1-1.63-1.527 3.875 3.875 0 0 1-.545-2.453 4.675 4.675 0 0 1 1.856-3.7 4.811 4.811 0 0 1 4.258-.383 3.96 3.96 0 0 1 2.55 3.712 10.04 10.04 0 0 0-.051 1.03zM41.75 18a3.287 3.287 0 0 0-.273-1.908 1.7 1.7 0 0 0-1.856-.6 2.257 2.257 0 0 0-1.252 1.7 3.2 3.2 0 0 0 .273 2.342 1.635 1.635 0 0 0 2.291.273.051.051 0 0 0 .051-.051 3.3 3.3 0 0 0 .852-2.018.255.255 0 0 0-.051.273z" class="cls-1" data-name="Path 37427" transform="translate(-5.286 -1.979)"/>
    <path id="Path_37428" d="M31.695 13.244a3.611 3.611 0 0 1 1.039 2.018c.162.928.434 3.815.494 4.258a1.976 1.976 0 0 1-.17 1.252 1.38 1.38 0 0 1-1.7.6c-.758-.332-.852-1.311-.852-1.967-.111-.979-.162-1.908-.273-2.827-.111-.766-.273-1.746-1.2-1.7a1.7 1.7 0 0 0-1.456 1.073 4.377 4.377 0 0 0-.06 1.2c.06.494.221 2.231.273 2.665a6.122 6.122 0 0 1 .06 1.039 1.456 1.456 0 0 1-1.311 1.2 1.218 1.218 0 0 1-.852-.332 1.805 1.805 0 0 1-.494-1.03c-.162-.928-.766-7.741-.928-8.669a2.606 2.606 0 0 1 .06-1.3 1.252 1.252 0 0 1 .647-.656 1.38 1.38 0 0 1 1.039-.051 1.26 1.26 0 0 1 .766.852 25.753 25.753 0 0 1 .375 2.887 2.827 2.827 0 0 1 .6-.545 3.33 3.33 0 0 1 3.943.033z" class="cls-1" data-name="Path 37428" transform="translate(-3.592 -1.475)"/>
    <path id="Path_37429" d="M78.985 12.032a.5.5 0 0 1-.051.273l-3.159 9.538c-.06.221-.383.332-.852.332h-.852c-.434 0-.766-.06-.852-.332L70 12.3a.5.5 0 0 1-.051-.273c0-.213.273-.324.928-.324h.485a.852.852 0 0 1 .852.434l2.01 6.429.17.545h.051l.162-.545 2.2-6.429a.852.852 0 0 1 .852-.434h.434c.619.006.892.117.892.329z" class="cls-1" data-name="Path 37429" transform="translate(-10.382 -1.737)"/>
    <path id="Path_37430" d="M89.169 14.989a3.219 3.219 0 0 1-3.406 3.27H84.2v3.406c0 .324-.273.494-.852.494h-.5c-.6 0-.852-.17-.852-.494v-9.29a.511.511 0 0 1 .434-.6h3.27c1.289-.005 3.469.378 3.469 3.214zm-4.969-1.32v2.623h1.311a1.167 1.167 0 0 0 1.252-1.039v-.221a1.167 1.167 0 0 0-1.03-1.3H84.2z" class="cls-1" data-name="Path 37430" transform="translate(-12.169 -1.747)"/>
    <path id="Path_37431" d="M100.516 12.2v9.48c0 .324-.273.494-.852.494h-.545a1.107 1.107 0 0 1-.988-.383l-3.977-6.106v5.961c0 .324-.273.494-.852.494h-.451c-.6 0-.852-.17-.852-.494V12.2c0-.332.272-.494.852-.494h.656a1.1 1.1 0 0 1 .979.383l3.474 5.391.383.6V12.2c0-.332.273-.494.852-.494h.468c.58.002.853.164.853.494z" class="cls-1" data-name="Path 37431" transform="translate(-13.655 -1.736)"/>
    <g id="Group_546" data-name="Group 546">
        <g id="Group_348" data-name="Group 348">
            <path id="Body_1_" d="M17.429 15.314a20.61 20.61 0 0 0-.971-6 4.822 4.822 0 0 1 .514-3.2s-.457 0-1.6 1.029a3.331 3.331 0 0 0-1.143 2.343C12.914 6.4 10.229 4.4 9.2 3.029A3.431 3.431 0 0 1 8.914 0c-2 .857-3.029 3.029-3.371 5.6A4.7 4.7 0 0 1 3.6 9.143C3.314 6.743.629 6.114.629 6.114c.571.171 1.543 2.971.514 4.971A9.572 9.572 0 0 0 0 15.314C0 20.114 3.029 24 8.686 24a8.485 8.485 0 0 0 8.743-8.686z" class="cls-2"/>
            <path id="RH_large_shade_1_" d="M22.721 9.371a4.822 4.822 0 0 1 .514-3.2s-.457 0-1.6 1.029a3.331 3.331 0 0 0-1.143 2.343c-1.314-3.086-4-5.086-5.029-6.457A3.352 3.352 0 0 1 15.178 0c-.514.971-1.6 2.686 2 6.629 4.457 4.343 6.057 7.314 5.2 11.657-.514 2.571-2 3.486-4 5.029h-.057a8.481 8.481 0 0 0 5.428-8.115 19.816 19.816 0 0 0-1.028-5.829z" class="cls-3" transform="translate(-6.264)"/>
            <path id="LH_large_shade_1_" d="M0 15.314a8.977 8.977 0 0 0 1.771 5.6c-.857-2-1.6-5.2-.457-7.486C3.486 9.143 6.8 9.086 6.743 5.6A7.781 7.781 0 0 1 8.971 0c-2 .857-3.028 3.029-3.371 5.6a4.7 4.7 0 0 1-1.943 3.543C3.371 6.743.686 6.114.686 6.114c.571.171 1.543 2.971.514 4.971A8.951 8.951 0 0 0 0 15.314z" class="cls-4"/>
            <g id="Group_344" class="cls-5" data-name="Group 344" transform="translate(.057 6.114)">
                <path id="Path_7230" d="M2.1 15.214c.629-2.171-.743-4.343-1.371-4.514.571.229 1.543 2.971.514 4.971A9.572 9.572 0 0 0 .1 19.9a9.451 9.451 0 0 0 1.6 5.371c-2.857-5.828-.286-7.942.4-10.057z" class="cls-6" data-name="Path 7230" transform="translate(-.1 -10.7)"/>
            </g>
            <g id="Group_345" class="cls-7" data-name="Group 345" transform="translate(11.657 6.171)">
                <path id="Path_7231" d="M25.2 14a4.822 4.822 0 0 1 .514-3.2c-1.029 1.371-1.429 2.4-.514 6.057 1.543 5.371-.457 9.371-4.8 11.314a8.46 8.46 0 0 0 5.829-8.229A19.924 19.924 0 0 0 25.2 14z" class="cls-8" data-name="Path 7231" transform="translate(-20.4 -10.8)"/>
            </g>
            <path id="LH_ear_1_" d="M1.1 10.7a3.7 3.7 0 0 1 2.457 3.257 1.465 1.465 0 0 0 .514-.229C3.843 11.271 1.1 10.7 1.1 10.7z" class="cls-9" transform="translate(-.471 -4.586)"/>
            <path id="RH_ear_1_" d="M25.243 14.686c.286-.114-.057-2.229 2.4-3.886 0 0-.457 0-1.6 1.029a3.331 3.331 0 0 0-1.143 2.342s.286.458.343.515z" class="cls-10" transform="translate(-10.671 -4.629)"/>
            <g id="Mouth_1_" transform="translate(2.229 15.886)">
                <path id="Mouth_2_" d="M16.014 27.8a5.6 5.6 0 0 1-11.2 0H3.9a6.515 6.515 0 0 0 13.029 0z" class="cls-11" transform="translate(-3.9 -27.8)"/>
            </g>
            <g id="Eyes_1_" transform="translate(4.457 12.457)">
                <g id="Group_346" data-name="Group 346" transform="translate(6.171)">
                    <ellipse id="Ellipse_68" cx="1.2" cy="1.714" class="cls-11" data-name="Ellipse 68" rx="1.2" ry="1.714"/>
                </g>
                <g id="Group_347" data-name="Group 347">
                    <ellipse id="Ellipse_69" cx="1.2" cy="1.714" class="cls-11" data-name="Ellipse 69" rx="1.2" ry="1.714"/>
                </g>
            </g>
        </g>
    </g>
</svg>
