<svg xmlns="http://www.w3.org/2000/svg" width="28" height="14" viewBox="0 0 28 14">
    <defs>
        <style>
            .cls-1{fill:#25d366}.cls-2{fill:#fff}
        </style>
    </defs>
    <g id="free" transform="translate(-2128 -1882)">
        <rect id="Rectangle_1271" width="28" height="14" class="cls-1" data-name="Rectangle 1271" rx="3.45" transform="translate(2128 1882)"/>
        <path id="Path_37532" d="M-8.584-5.28a.389.389 0 0 1 .44-.44h2.624a.389.389 0 0 1 .44.44v.32a.389.389 0 0 1-.44.44h-1.664v1.2h1.3a.389.389 0 0 1 .44.44v.32a.389.389 0 0 1-.44.44h-1.3v1.68a.389.389 0 0 1-.44.44h-.52a.389.389 0 0 1-.44-.44zm4.192 0a.389.389 0 0 1 .44-.44H-2.4a5.591 5.591 0 0 1 .684.032 1.83 1.83 0 0 1 .428.1 1.566 1.566 0 0 1 .772.612A1.861 1.861 0 0 1-.232-3.92a2.062 2.062 0 0 1-.052.46 1.894 1.894 0 0 1-.16.44 1.681 1.681 0 0 1-.268.384 1.248 1.248 0 0 1-.376.276v.016q.024.032.056.08a.7.7 0 0 1 .068.108q.036.068.092.156l.816 1.472a.359.359 0 0 1 .044.38A.377.377 0 0 1-.36 0h-.608a.564.564 0 0 1-.52-.312l-.848-1.616h-.656V-.44a.389.389 0 0 1-.44.44h-.52a.389.389 0 0 1-.44-.44zm2.008 2.152a.756.756 0 0 0 .532-.18.676.676 0 0 0 .2-.524.927.927 0 0 0-.072-.368.458.458 0 0 0-.268-.236 1.371 1.371 0 0 0-.528-.08h-.472v1.392zM.728-5.28a.389.389 0 0 1 .44-.44h2.7a.389.389 0 0 1 .44.44v.32a.389.389 0 0 1-.44.44h-1.74v1.04h1.3a.389.389 0 0 1 .44.44v.32a.389.389 0 0 1-.44.44h-1.3v1.08h1.856a.389.389 0 0 1 .44.44v.32a.389.389 0 0 1-.44.44H1.168a.389.389 0 0 1-.44-.44zm4.48 0a.389.389 0 0 1 .44-.44h2.7a.389.389 0 0 1 .44.44v.32a.389.389 0 0 1-.44.44h-1.74v1.04h1.3a.389.389 0 0 1 .44.44v.32a.389.389 0 0 1-.44.44h-1.3v1.08h1.856a.389.389 0 0 1 .44.44v.32a.389.389 0 0 1-.44.44H5.648a.389.389 0 0 1-.44-.44z" class="cls-2" data-name="Path 37532" transform="translate(2142 1892)"/>
    </g>
</svg>

