<svg xmlns="http://www.w3.org/2000/svg" width="126.388" height="26" viewBox="0 0 126.388 26">
    <defs>
        <style>
            .cls-1{fill:url(#radial-gradient)}.cls-2{fill:#fd0}.cls-2,.cls-6{opacity:.2}.cls-3{fill:#9d0b0f;opacity:.3}.cls-4,.cls-8,.cls-9{opacity:.5}.cls-5{fill:#ec1c24;opacity:.8}.cls-7{fill:#ef4e23}.cls-8{fill:#f05a22}.cls-9{fill:#c3161c}.cls-10{fill:#231f20}.cls-11{fill:#fff}
        </style>
        <radialGradient id="radial-gradient" cx="11.096" cy="19.558" r="14.449" gradientTransform="matrix(1.376 0 0 1.362 -4.174 -7.09)" gradientUnits="userSpaceOnUse">
            <stop offset=".05" stop-color="#fbae17"/>
            <stop offset=".17" stop-color="#f6921e"/>
            <stop offset=".4" stop-color="#f16522"/>
            <stop offset=".63" stop-color="#d71921"/>
            <stop offset=".8" stop-color="#c3161c"/>
            <stop offset=".96" stop-color="#b01117"/>
        </radialGradient>
    </defs>
    <g id="vpnfree_white_2" transform="translate(0 -117.635)">
        <path id="Body" d="M18.894 16.606a21.052 21.052 0 0 0-1.07-6.458 5.332 5.332 0 0 1 .535-3.432s-.47 0-1.707 1.126a4 4 0 0 0-1.245 2.537C13.995 7.021 11.071 4.9 9.973 3.423A3.921 3.921 0 0 1 9.677 0C7.5.923 6.375 3.3 5.987 6.08a5.111 5.111 0 0 1-2.066 3.837c-.231-2.6-3.21-3.3-3.21-3.3.59.175 1.707 3.247.526 5.425A9.917 9.917 0 0 0 0 16.606C0 21.744 3.3 26 9.447 26a9.225 9.225 0 0 0 9.447-9z" class="cls-1" transform="translate(0 117.635)"/>
        <path id="RH_large_shade" d="M18.586 127.793a5.322 5.322 0 0 1 .535-3.432s-.47 0-1.707 1.126a3.958 3.958 0 0 0-1.245 2.537c-1.411-3.358-4.336-5.48-5.434-6.956a3.553 3.553 0 0 1-.3-3.3c-.526 1.061-1.707 2.888 2.131 7.2 4.843 4.723 6.55 7.915 5.609 12.639-.535 2.768-2.186 3.773-4.308 5.489h-.12a9.134 9.134 0 0 0 5.9-8.736 21.22 21.22 0 0 0-1.061-6.567z" class="cls-2" data-name="RH large shade" transform="translate(-.763 -.01)"/>
        <path id="LH_large_shade" d="M.06 134.245a9.716 9.716 0 0 0 1.956 6.08c-.923-2.122-1.716-5.609-.48-8.081 2.364-4.687 5.964-4.744 5.849-8.525a8.375 8.375 0 0 1 2.362-6.024c-2.186.95-3.284 3.247-3.607 6.024a5.072 5.072 0 0 1-2.057 3.838c-.3-2.6-3.247-3.3-3.247-3.3.59.175 1.651 3.247.526 5.425a8.621 8.621 0 0 0-1.302 4.563z" class="cls-3" data-name="LH large shade" transform="translate(-.004 -.005)"/>
        <g id="Group_1560" class="cls-4" data-name="Group 1560" transform="translate(.127 124.25)">
            <path id="Path_37445" d="M2.252 129.7c.71-2.362-.766-4.668-1.476-4.9.59.231 1.651 3.183.535 5.369a10.148 10.148 0 0 0 .544 10.388c-3.081-6.25-.313-8.528.397-10.857z" class="cls-5" data-name="Path 37445" transform="translate(-.137 -124.805)"/>
        </g>
        <g id="Group_1561" class="cls-6" data-name="Group 1561" transform="translate(12.63 124.351)">
            <path id="Path_37446" d="M18.884 128.347a5.322 5.322 0 0 1 .535-3.432c-1.116 1.476-1.531 2.657-.535 6.559 1.661 5.84-.47 10.148-5.194 12.214a9.133 9.133 0 0 0 6.319-8.884 22.912 22.912 0 0 0-1.125-6.457z" class="cls-7" data-name="Path 37446" transform="translate(-13.69 -124.915)"/>
        </g>
        <path id="LH_ear" d="M.77 124.805a3.968 3.968 0 0 1 2.657 3.478 1.508 1.508 0 0 0 .526-.231C3.75 125.451.77 124.805.77 124.805z" class="cls-8" data-name="LH ear" transform="translate(-.06 -.555)"/>
        <path id="RH_ear" d="M17.06 129.118c.3-.175-.065-2.426 2.592-4.253 0 0-.47 0-1.707 1.126a3.608 3.608 0 0 0-1.245 2.537s.277.472.36.59z" class="cls-9" data-name="RH ear" transform="translate(-1.294 -.56)"/>
        <g id="Mouth" transform="translate(2.417 134.877)">
            <path id="Mouth-2" d="M15.729 136.325a6.135 6.135 0 0 1-6.08 6.015 6.079 6.079 0 0 1-6.024-6.015H2.62a7.057 7.057 0 0 0 14.115 0z" class="cls-10" transform="translate(-2.62 -136.325)"/>
        </g>
        <g id="Eyes" transform="translate(4.779 131.16)">
            <ellipse id="Ellipse_70" cx="1.356" cy="1.827" class="cls-10" data-name="Ellipse 70" rx="1.356" ry="1.827" transform="translate(6.679)"/>
            <ellipse id="Ellipse_71" cx="1.356" cy="1.827" class="cls-10" data-name="Ellipse 71" rx="1.356" ry="1.827"/>
        </g>
        <g id="Group_1568" data-name="Group 1568">
            <path id="Subtraction_3" d="M-876.774 1208.551h-20.776a3.454 3.454 0 0 1-3.45-3.45v-6.016a3.454 3.454 0 0 1 3.45-3.451h20.776a3.454 3.454 0 0 1 3.45 3.451v6.016a3.454 3.454 0 0 1-3.45 3.45zm-18.574-9.1a.361.361 0 0 0-.255.1.359.359 0 0 0-.1.3v4.465a.357.357 0 0 0 .1.3.356.356 0 0 0 .253.105.351.351 0 0 0 .051 0h.48a.321.321 0 0 0 .051 0 .359.359 0 0 0 .252-.105.361.361 0 0 0 .1-.3v-1.55h1.2a.369.369 0 0 0 .051 0 .356.356 0 0 0 .253-.105.359.359 0 0 0 .1-.3v-.3a.356.356 0 0 0-.1-.3.359.359 0 0 0-.255-.106.366.366 0 0 0-.049 0h-1.2v-1.107h1.531a.369.369 0 0 0 .05 0 .357.357 0 0 0 .254-.105.36.36 0 0 0 .1-.3v-.3a.359.359 0 0 0-.1-.3.361.361 0 0 0-.255-.1.367.367 0 0 0-.049 0h-2.415a.354.354 0 0 0-.047 0zm13.721 5.243h2.639a.334.334 0 0 0 .051 0 .359.359 0 0 0 .252-.105.361.361 0 0 0 .1-.3v-.3a.36.36 0 0 0-.1-.3.359.359 0 0 0-.254-.106.367.367 0 0 0-.049 0h-1.712v-1h1.209a.366.366 0 0 0 .05 0 .358.358 0 0 0 .255-.105.365.365 0 0 0 .1-.3v-.3a.365.365 0 0 0-.1-.3.361.361 0 0 0-.255-.105.367.367 0 0 0-.049 0h-1.21v-.923h1.578a.369.369 0 0 0 .05 0 .357.357 0 0 0 .254-.105.365.365 0 0 0 .1-.3v-.3a.365.365 0 0 0-.1-.3.361.361 0 0 0-.255-.1.367.367 0 0 0-.049 0h-2.5a.353.353 0 0 0-.047 0 .363.363 0 0 0-.258.1.365.365 0 0 0-.1.3v4.428a.363.363 0 0 0 .1.3.356.356 0 0 0 .253.105.354.354 0 0 0 .051 0zm-4.438 0h2.593a.334.334 0 0 0 .051 0 .361.361 0 0 0 .253-.105.362.362 0 0 0 .1-.3v-.3a.362.362 0 0 0-.1-.3.359.359 0 0 0-.255-.106.366.366 0 0 0-.049 0h-1.743v-1h1.2a.366.366 0 0 0 .05 0 .358.358 0 0 0 .255-.105.365.365 0 0 0 .1-.3v-.3a.365.365 0 0 0-.1-.3.361.361 0 0 0-.255-.105.367.367 0 0 0-.049 0h-1.2v-.923h1.6a.369.369 0 0 0 .05 0 .357.357 0 0 0 .254-.105.365.365 0 0 0 .1-.3v-.3a.365.365 0 0 0-.1-.3.361.361 0 0 0-.255-.1.367.367 0 0 0-.049 0h-2.486a.354.354 0 0 0-.047 0 .363.363 0 0 0-.257.1.363.363 0 0 0-.1.3l.037 4.428a.361.361 0 0 0 .1.3.357.357 0 0 0 .252.105.354.354 0 0 0 .051 0zm-5.092-.009h.48a.466.466 0 0 0 .049 0 .358.358 0 0 0 .255-.105.359.359 0 0 0 .1-.3v-1.38h.609l.775 1.494a.512.512 0 0 0 .461.287h.623a.353.353 0 0 0 .281-.141.334.334 0 0 0 0-.35l-.757-1.356a.818.818 0 0 1-.083-.148l-.065-.092a.247.247 0 0 0-.055-.074 1.083 1.083 0 0 0 .35-.258 1.351 1.351 0 0 0 .249-.351 2.1 2.1 0 0 0 .148-.406 2.216 2.216 0 0 0 0-.424 1.756 1.756 0 0 0-.258-.969 1.419 1.419 0 0 0-.719-.562 1.484 1.484 0 0 0-.388-.1c-.105-.006-.212-.009-.318-.009s-.213 0-.318.009h-1.43a.368.368 0 0 0-.049 0 .361.361 0 0 0-.255.1.365.365 0 0 0-.1.3l.009 4.419a.365.365 0 0 0 .1.3.357.357 0 0 0 .255.105.367.367 0 0 0 .05 0zm1.465-2.84h-.035l-.517-.028v-1.282h.479a1.338 1.338 0 0 1 .444.074.429.429 0 0 1 .249.221.923.923 0 0 1 .065.342.619.619 0 0 1-.231.507.7.7 0 0 1-.453.166z" class="cls-11" data-name="Subtraction 3" transform="translate(999.712 -1067.852)"/>
            <path id="Path_37469" d="M63.9 16.194c.055-.526.3-4.779.535-6.375a2.1 2.1 0 0 1 1.185-1.771 1.845 1.845 0 0 1 1.974.36 1.541 1.541 0 0 1 .415 1.116 4.216 4.216 0 0 1-.12 1.476c-.175 1.061-1.116 5.139-1.411 6.144a2.14 2.14 0 0 1-.655 1.116 1.089 1.089 0 0 1-1.181.12c-.59-.231-.71-.821-.766-1.411a1.845 1.845 0 0 1 0-.775zm-1.126 5.314a1.983 1.983 0 0 1 .923-1.947 1.845 1.845 0 0 1 2.362.47 1.771 1.771 0 0 1 .065 2.186 1.919 1.919 0 0 1-1.061.59 1.181 1.181 0 0 1-.655.12 1.845 1.845 0 0 1-1.6-1.421z" class="cls-11" data-name="Path 37469" transform="translate(-4.861 117.023)"/>
            <path id="Path_37470" d="M52.645 21.911a2.675 2.675 0 0 1-1.006-2.242 2.768 2.768 0 0 1 1.061-2.121 3.69 3.69 0 0 1 2.537-.59c1.006 0 1.365 0 2.306-.065l.71-.055v-.055a1.494 1.494 0 0 0-.065-.535c-.055-.415-.923-1.006-1.947-.923a4.262 4.262 0 0 0-1.181.535c-1.707.923-2.3-.923-1.771-1.6a3 3 0 0 1 2.311-1.122 7.38 7.38 0 0 1 2.768.3 4.188 4.188 0 0 1 2.186 1.3 3.69 3.69 0 0 1 .535 2.6c-.12 1-.415 2-.59 3.007a11.293 11.293 0 0 0-.065 1.476 2.02 2.02 0 0 1-.157 1.338 1.328 1.328 0 0 1-1.845.231c-.111-.055-.175-.175-.231-.231-.175-.3-.36-.59-.535-.923a5.618 5.618 0 0 1-2.952.59 4.751 4.751 0 0 1-2.067-.913zm1.891-2.186a.978.978 0 0 0 .923 1.006 1.974 1.974 0 0 0 1.707-.415 2.426 2.426 0 0 0 .71-1.531c-.71.055-1.845.055-2.177.055s-1.107.24-1.162.886z" class="cls-11" data-name="Path 37470" transform="translate(-3.999 116.619)"/>
            <path id="Path_37471" d="M46.9 12.371a12.27 12.27 0 0 1-.055-1.421 1.467 1.467 0 0 1 1.3-1.421 1.578 1.578 0 0 1 1.531 1.181c.065.36.065.923.12 1.421 0 0 .71 8.5.71 8.856a1.614 1.614 0 0 1-1.3 1.771c-1.3.055-1.531-.923-1.651-1.541z" class="cls-11" data-name="Path 37471" transform="translate(-3.628 116.897)"/>
            <path id="Path_37472" d="M45.029 18.8a4.936 4.936 0 0 1-2.362 3.69A5.166 5.166 0 0 1 38 22.427a4.687 4.687 0 0 1-1.771-1.651 4.2 4.2 0 0 1-.59-2.657 5.065 5.065 0 0 1 2.011-4.013 5.212 5.212 0 0 1 4.613-.415 4.29 4.29 0 0 1 2.768 4.022 10.878 10.878 0 0 0-.055 1.116zm-2.768-.415a3.561 3.561 0 0 0-.3-2.066 1.845 1.845 0 0 0-2.011-.646 2.445 2.445 0 0 0-1.35 1.846 3.469 3.469 0 0 0 .3 2.537 1.771 1.771 0 0 0 2.482.3.055.055 0 0 0 .055-.055 3.57 3.57 0 0 0 .923-2.186.277.277 0 0 0-.055.3z" class="cls-11" data-name="Path 37472" transform="translate(-2.758 116.602)"/>
            <path id="Path_37473" d="M32.319 13.519a3.912 3.912 0 0 1 1.126 2.186c.175 1.006.471 4.133.535 4.613a2.14 2.14 0 0 1-.185 1.356 1.5 1.5 0 0 1-1.845.655c-.821-.36-.923-1.421-.923-2.131-.12-1.061-.175-2.066-.3-3.063-.12-.83-.3-1.891-1.3-1.845a1.845 1.845 0 0 0-1.578 1.162 4.742 4.742 0 0 0-.065 1.3c.065.535.24 2.417.3 2.888a6.633 6.633 0 0 1 .065 1.126 1.578 1.578 0 0 1-1.421 1.3 1.319 1.319 0 0 1-.923-.36 1.956 1.956 0 0 1-.535-1.116c-.175-1.006-.83-8.386-1.006-9.392a2.823 2.823 0 0 1 .065-1.411 1.356 1.356 0 0 1 .7-.71 1.5 1.5 0 0 1 1.126-.055 1.365 1.365 0 0 1 .83.923 27.9 27.9 0 0 1 .406 3.127 3.063 3.063 0 0 1 .655-.59 3.607 3.607 0 0 1 4.273.037z" class="cls-11" data-name="Path 37473" transform="translate(-1.875 116.865)"/>
            <path id="Path_37474" d="M79.738 12.06a.544.544 0 0 1-.055.3L76.26 22.688c-.065.24-.415.36-.923.36h-.923c-.47 0-.83-.065-.923-.36l-3.486-10.333a.544.544 0 0 1-.055-.3c0-.231.3-.351 1.006-.351h.526a.923.923 0 0 1 .923.47l2.177 6.965.185.59h.055l.175-.59 2.38-6.965a.923.923 0 0 1 .923-.47h.47c.673.005.968.125.968.356z" class="cls-11" data-name="Path 37474" transform="translate(-5.418 116.729)"/>
            <path id="Path_37475" d="M89.767 15.257a3.487 3.487 0 0 1-3.69 3.543h-1.688v3.69c0 .351-.3.535-.923.535h-.544c-.646 0-.923-.185-.923-.535V12.425a.554.554 0 0 1 .471-.655h3.543c1.392 0 3.754.415 3.754 3.487zm-5.378-1.43v2.841h1.421a1.264 1.264 0 0 0 1.356-1.126V15.3a1.264 1.264 0 0 0-1.116-1.411h-1.661z" class="cls-11" data-name="Path 37475" transform="translate(-6.351 116.723)"/>
            <path id="Path_37476" d="M101.225 12.244v10.268c0 .351-.3.535-.923.535h-.59a1.2 1.2 0 0 1-1.07-.415l-4.308-6.615v6.458c0 .351-.3.535-.923.535h-.489c-.655 0-.923-.185-.923-.535V12.244c0-.36.3-.535.923-.535h.71a1.19 1.19 0 0 1 1.061.415l3.764 5.84.415.655v-6.375c0-.36.3-.535.923-.535h.507c.628 0 .923.175.923.535z" class="cls-11" data-name="Path 37476" transform="translate(-7.126 116.729)"/>
        </g>
    </g>
</svg>
