<svg xmlns="http://www.w3.org/2000/svg" width="32" height="22" viewBox="0 0 32 22">
    <defs>
        <style>
            .cls-1{fill:#0288d1}
        </style>
    </defs>
    <g id="ic_hd" transform="translate(-630 -753)">
        <path id="Path_38544" d="M658 753h-24a4 4 0 0 0-4 4v14a4 4 0 0 0 4 4h24a4 4 0 0 0 4-4v-14a4 4 0 0 0-4-4zm-13.933 16h-2.828l.771-3.886h-3.843L637.4 769h-2.828l2-10h2.828l-.743 3.743h3.842l.743-3.743h2.829zm7.123 0h-5.115l2-10h4.343c3.114 0 5.014 1.614 5.014 4.2 0 3.543-2.571 5.8-6.242 5.8z" class="cls-1" data-name="Path 38544"/>
        <path id="Path_38545" d="M652.1 761.258h-1.657l-1.086 5.485h1.914a3.137 3.137 0 0 0 3.3-3.371c.004-1.328-.839-2.114-2.471-2.114z" class="cls-1" data-name="Path 38545"/>
    </g>
</svg>
