<svg xmlns="http://www.w3.org/2000/svg" width="70.959" height="18" viewBox="0 0 70.959 18">
    <defs>
        <style>
            .cls-1{fill:#002f86}.cls-2{fill:#009cde}.cls-3{fill:#003087}.cls-4{fill:#012069}
        </style>
    </defs>
    <g id="ic_paypal" transform="translate(.015)">
        <path id="path14519_1_" d="M67.609 12.6h-1.853a.654.654 0 0 0-.424.212l-2.541 3.759-1.112-3.653a.526.526 0 0 0-.529-.371h-1.8a.339.339 0 0 0-.318.424l2.068 5.982-1.959 2.753a.335.335 0 0 0 .265.529h1.853a.654.654 0 0 0 .424-.212l6.194-8.947a.3.3 0 0 0-.265-.476m-12.445 3.6a2.015 2.015 0 0 1-2.067 1.747 1.519 1.519 0 0 1-1.218-.476 1.568 1.568 0 0 1-.265-1.324 2.06 2.06 0 0 1 2.065-1.8 1.4 1.4 0 0 1 1.218.529 1.568 1.568 0 0 1 .265 1.324m2.594-3.6h-1.85a.3.3 0 0 0-.318.265l-.106.529-.106-.212a2.625 2.625 0 0 0-2.171-.794 4.209 4.209 0 0 0-4.129 3.706 3.561 3.561 0 0 0 .688 2.859 2.861 2.861 0 0 0 2.329.953 3.485 3.485 0 0 0 2.541-1.059l-.106.529a.3.3 0 0 0 .318.371h1.694a.563.563 0 0 0 .529-.476l1.006-6.353c.053-.159-.106-.318-.318-.318m-11.118 0c-.212 1.376-1.271 1.376-2.276 1.376h-.582l.424-2.594a.3.3 0 0 1 .318-.265h.265c.688 0 1.376 0 1.694.371a1.3 1.3 0 0 1 .159 1.112M46.22 9h-3.864a.563.563 0 0 0-.529.476l-1.535 9.9a.3.3 0 0 0 .318.371h1.853a.563.563 0 0 0 .529-.476l.424-2.647a.563.563 0 0 1 .529-.476h1.218c2.541 0 4.024-1.218 4.394-3.653a3.1 3.1 0 0 0-.476-2.488A3.814 3.814 0 0 0 46.22 9" class="cls-1" transform="translate(-18.963 -4.235)"/>
        <path id="path14523_1_" d="M111.932 9.218l-1.588 10.059a.3.3 0 0 0 .318.371h1.588a.563.563 0 0 0 .529-.476l1.588-9.9a.3.3 0 0 0-.318-.371h-1.8a.477.477 0 0 0-.318.318m-4.765 6.935A2.015 2.015 0 0 1 105.1 17.9a1.519 1.519 0 0 1-1.218-.476 1.568 1.568 0 0 1-.265-1.324 2.06 2.06 0 0 1 2.065-1.8 1.4 1.4 0 0 1 1.218.529 1.568 1.568 0 0 1 .265 1.324m2.594-3.6h-1.853a.3.3 0 0 0-.318.265l-.106.529-.106-.212a2.625 2.625 0 0 0-2.171-.794 4.209 4.209 0 0 0-4.129 3.706 3.561 3.561 0 0 0 .688 2.859 2.861 2.861 0 0 0 2.329.953 3.485 3.485 0 0 0 2.541-1.059l-.106.529a.3.3 0 0 0 .318.371h1.641a.563.563 0 0 0 .529-.476l1.006-6.353c.106-.159-.053-.318-.265-.318m-11.065 0c-.212 1.376-1.271 1.376-2.276 1.376h-.582l.424-2.594a.3.3 0 0 1 .318-.265h.265c.688 0 1.376 0 1.694.371a1.842 1.842 0 0 1 .159 1.112m-.476-3.6h-3.862a.563.563 0 0 0-.529.476l-1.535 9.9a.3.3 0 0 0 .318.371h1.959a.454.454 0 0 0 .371-.318l.424-2.806a.563.563 0 0 1 .529-.476h1.218c2.541 0 4.024-1.218 4.394-3.653a3.1 3.1 0 0 0-.476-2.488 3.526 3.526 0 0 0-2.809-1.006" class="cls-2" transform="translate(-43.433 -4.188)"/>
        <g id="Group_15" data-name="Group 15" transform="translate(-.015)">
            <path id="path14499_1_" d="M12.963 1.376C12.169.424 10.634 0 8.728 0H3.116a.8.8 0 0 0-.794.688L-.007 15.459a.438.438 0 0 0 .476.529H3.91l.847-5.506v.212a.8.8 0 0 1 .794-.688h1.642c3.229 0 5.771-1.324 6.459-5.082 0-.106.053-.212.053-.318a3.351 3.351 0 0 0-.741-3.229" class="cls-3" transform="translate(.015)"/>
            <path id="path14527_1_" d="M12.963 1.376C12.169.424 10.634 0 8.728 0H3.116a.8.8 0 0 0-.794.688L-.007 15.459a.438.438 0 0 0 .476.529H3.91l.847-5.506v.212a.8.8 0 0 1 .794-.688h1.642c3.229 0 5.771-1.324 6.459-5.082 0-.106.053-.212.053-.318a3.351 3.351 0 0 0-.741-3.229" class="cls-3" transform="translate(.015)"/>
            <path id="path14531_1_" d="M5.71 4.606a.971.971 0 0 1 .371-.529.671.671 0 0 1 .319-.053h4.394a11.277 11.277 0 0 1 1.429.106c.106 0 .265.053.371.053a1.347 1.347 0 0 1 .371.106c.053 0 .106.053.159.053a1.957 1.957 0 0 1 .582.265 3.718 3.718 0 0 0-.741-3.229C12.116.424 10.634 0 8.728 0H3.116a.8.8 0 0 0-.794.688L-.007 15.459a.438.438 0 0 0 .476.529H3.91l.847-5.506.953-5.876z" class="cls-1" transform="translate(.015)"/>
            <path id="path14535_1_" d="M17.052 8.6c0 .106-.053.212-.053.318C16.257 12.729 13.716 14 10.54 14H8.9a.8.8 0 0 0-.794.688l-.9 5.347-.212 1.535a.405.405 0 0 0 .424.476h2.912a.689.689 0 0 0 .688-.582l.053-.159.529-3.494.053-.212a.733.733 0 0 1 .688-.582h.424c2.806 0 5.029-1.165 5.665-4.447a3.846 3.846 0 0 0-.582-3.335 4.646 4.646 0 0 0-.794-.635" class="cls-2" transform="translate(-3.279 -4.047)"/>
            <path id="path14539_1_" d="M17.206 7.865a3.374 3.374 0 0 0-.371-.106c-.106 0-.265-.053-.371-.053a12.079 12.079 0 0 0-1.429-.106h-4.394a.671.671 0 0 0-.318.053.576.576 0 0 0-.371.529l-.9 5.876-.052.213a.8.8 0 0 1 .794-.688h1.641c3.229 0 5.771-1.324 6.459-5.082 0-.106.053-.212.053-.318-.212-.106-.371-.159-.582-.265a.194.194 0 0 0-.159-.053" class="cls-4" transform="translate(-4.227 -3.576)"/>
        </g>
    </g>
</svg>
