<svg xmlns="http://www.w3.org/2000/svg" width="19" height="19" viewBox="0 0 19 19">
    <defs>
        <style>
            .cls-1,.cls-2{fill:#fff}.cls-1{opacity:0}
        </style>
    </defs>
    <g id="ic_unblock_19" transform="translate(32)">
        <path id="Rectangle_1164" d="M0 0h19v19H0z" class="cls-1" data-name="Rectangle 1164" transform="translate(-32)"/>
        <path id="Path_37489" d="M15 8V5.5A5.5 5.5 0 0 0 4.025 5h2.026A3.492 3.492 0 0 1 13 5.5V8H4a2 2 0 0 0-2 2v7a2 2 0 0 0 2 2h11a2 2 0 0 0 2-2v-7a2 2 0 0 0-2-2zm-5.5 7a1.5 1.5 0 1 1 1.5-1.5A1.5 1.5 0 0 1 9.5 15z" class="cls-2" data-name="Path 37489" transform="translate(-32)"/>
    </g>
</svg>
