<svg xmlns="http://www.w3.org/2000/svg" width="32" height="22" viewBox="0 0 32 22">
    <defs>
        <style>
            .cls-1{fill:#f2f2f2}.cls-2{fill:#d8d8d8}.cls-3{fill:#00579d}.cls-4{fill:#f9a732}
        </style>
    </defs>
    <g id="visa" transform="translate(0 -1)">
        <rect id="Rectangle_430" width="31" height="21" class="cls-1" data-name="Rectangle 430" rx="2.5" transform="translate(.5 1.5)"/>
        <path id="Path_7512" d="M29 1H3a3 3 0 0 0-3 3v16a3 3 0 0 0 3 3h26a3 3 0 0 0 3-3V4a3 3 0 0 0-3-3zm2 19a2 2 0 0 1-2 2H3a2 2 0 0 1-2-2V4a2 2 0 0 1 2-2h26a2 2 0 0 1 2 2z" class="cls-2" data-name="Path 7512"/>
        <path id="Path_7513" d="M10.1 8.1l-2 5.3-.2-1.1a5.87 5.87 0 0 0-2.8-3.2l1.8 6.8H9l3.2-7.7zm13.8 5c.2-.4.8-2.2.8-2.2a6.66 6.66 0 0 0 .3-.7l.1.7s.4 1.8.5 2.2zm2.5-5h-1.6a1 1 0 0 0-1.1.6l-3 7.1h2.1s.3-1 .4-1.2h2.6a9.64 9.64 0 0 1 .2 1.2h2zm-5.2.2a5.66 5.66 0 0 0-1.8-.3c-2 0-3.4 1-3.4 2.6a2.45 2.45 0 0 0 1.8 2.1c.8.4 1.1.6 1 1a1.1 1.1 0 0 1-1.2.8 4.06 4.06 0 0 1-1.9-.4l-.3-.1-.3 1.7a5.87 5.87 0 0 0 2.3.4c2.1 0 3.5-1 3.5-2.6 0-.9-.5-1.6-1.7-2.1-.7-.4-1.1-.6-1.1-1s.4-.7 1.2-.7a4 4 0 0 1 1.5.3h.1zm-9.4 7.6l1.3-7.7h2l-1.3 7.7z" class="cls-3" data-name="Path 7513"/>
        <path id="Path_7514" d="M6.3 8.1H3v.2a6.67 6.67 0 0 1 4.9 4l-.7-3.5a1 1 0 0 0-.9-.7" class="cls-4" data-name="Path 7514"/>
    </g>
</svg>
