<svg xmlns="http://www.w3.org/2000/svg" viewBox="0 0 60 60">
    <defs>
        <style>
            .cls-1{fill:#7ac70c}.cls-2{fill:#fff}
        </style>
    </defs>
    <g id="ic_save" transform="translate(-691 -604)">
        <circle id="Ellipse_232" cx="30" cy="30" r="30" class="cls-1" data-name="Ellipse 232" transform="translate(691 604)"/>
        <path id="Path_13105" d="M-6.832-12.224a5.942 5.942 0 0 1-2.268-.432 5.95 5.95 0 0 1-1.84-1.168 5.338 5.338 0 0 1-1.232-1.744 5.258 5.258 0 0 1-.448-2.16 5.182 5.182 0 0 1 .448-2.128 5.52 5.52 0 0 1 1.232-1.76 6.033 6.033 0 0 1 1.84-1.2 5.757 5.757 0 0 1 2.272-.448 5.676 5.676 0 0 1 2.24.448 6.243 6.243 0 0 1 1.856 1.2 5.4 5.4 0 0 1 1.248 1.76 5.182 5.182 0 0 1 .448 2.128 5.258 5.258 0 0 1-.448 2.16 5.228 5.228 0 0 1-1.248 1.744 6.157 6.157 0 0 1-1.856 1.168 5.858 5.858 0 0 1-2.244.432zm12.352-9.6a2.5 2.5 0 0 1 2.144-1.056h.8q1.12 0 1.44.624t-.384 1.52l-15.2 19.68A2.5 2.5 0 0 1-7.824 0h-.8q-1.12 0-1.44-.624t.384-1.52zm-12.352 5.76a1.758 1.758 0 0 0 1.248-.48 1.6 1.6 0 0 0 .512-1.216 1.574 1.574 0 0 0-.512-1.168 1.726 1.726 0 0 0-1.248-.5 1.726 1.726 0 0 0-1.248.5 1.574 1.574 0 0 0-.512 1.168 1.6 1.6 0 0 0 .512 1.216 1.758 1.758 0 0 0 1.248.48zM1.04-5.12a5.182 5.182 0 0 1 .448-2.128 5.52 5.52 0 0 1 1.232-1.76 6.033 6.033 0 0 1 1.84-1.2 5.757 5.757 0 0 1 2.272-.448 5.676 5.676 0 0 1 2.24.448 6.243 6.243 0 0 1 1.856 1.2 5.4 5.4 0 0 1 1.248 1.76 5.182 5.182 0 0 1 .448 2.128 5.258 5.258 0 0 1-.448 2.16 5.228 5.228 0 0 1-1.248 1.744A6.157 6.157 0 0 1 9.072-.048a5.858 5.858 0 0 1-2.24.432A5.942 5.942 0 0 1 4.56-.048a5.95 5.95 0 0 1-1.84-1.168A5.338 5.338 0 0 1 1.488-2.96a5.258 5.258 0 0 1-.448-2.16zm4.032-.032a1.6 1.6 0 0 0 .512 1.216 1.758 1.758 0 0 0 1.248.48 1.758 1.758 0 0 0 1.248-.48 1.6 1.6 0 0 0 .512-1.216A1.574 1.574 0 0 0 8.08-6.32a1.727 1.727 0 0 0-1.248-.5 1.727 1.727 0 0 0-1.248.5 1.574 1.574 0 0 0-.512 1.168z" class="cls-2" data-name="Path 13105" transform="translate(721 646)"/>
    </g>
</svg>
