<?xml version="1.0" encoding="utf-8"?>
<!-- Generator: Adobe Illustrator 17.1.0, SVG Export Plug-In . SVG Version: 6.00 Build 0)  -->
<!DOCTYPE svg PUBLIC "-//W3C//DTD SVG 1.1//EN" "http://www.w3.org/Graphics/SVG/1.1/DTD/svg11.dtd">
<svg version="1.1" xmlns="http://www.w3.org/2000/svg" xmlns:xlink="http://www.w3.org/1999/xlink" x="0px" y="0px"
	 viewBox="0 0 24.9 24.9" enable-background="new 0 0 24.9 24.9" xml:space="preserve">
<g id="Layer_2">
</g>
<g id="Layer_1">
	<g>
		<path fill="#004E74" d="M12.5,23.5v-8h9.3c0,0-2.6,7.9-7.6,9.4C13.4,25.1,12.5,24.5,12.5,23.5z"/>
		<path fill="#004E74" d="M1.4,12.4h8V3.1c0,0-7.9,2.6-9.4,7.6C-0.2,11.6,0.5,12.4,1.4,12.4z"/>
		<path opacity="0.15" d="M1.4,12.4h8V7.9c0,0,0,0-9.4,2.8C-0.2,11.6,0.5,12.4,1.4,12.4z"/>
		<path opacity="0.15" d="M12.5,23.5v-8H17c0,0,0,0-2.8,9.4C13.4,25.1,12.5,24.5,12.5,23.5z"/>
		<path opacity="0.2" d="M12.5,20.4v-4.9c0,0,6.8,0,9.3,0C20,21.2,12.5,20.4,12.5,20.4z"/>
		<path opacity="0.2" d="M4.6,12.4h4.9c0,0,0-6.8,0-9.3C3.7,4.9,4.6,12.4,4.6,12.4z"/>
		<g>
			<g>
				<path fill="#64DCFF" d="M20.8,16.8c-3.5,3.5-9.2,3.5-12.7,0s-3.5-9.2,0-12.7C11.2,1,18.9,0.2,23.3,0c0.9,0,1.7,0.7,1.6,1.6
					C24.8,6,23.9,13.7,20.8,16.8z"/>
			</g>
		</g>
		<g>
			<path fill="#32C8FF" d="M24.9,1.6c0-0.5-0.2-0.9-0.5-1.2L8.1,16.8l0,0c3.5,3.5,9.2,3.5,12.7,0C23.9,13.7,24.8,6,24.9,1.6z"/>
		</g>
		<path fill="#CD0000" d="M0,24.9c0,0,5.6-1.3,6.9-2.5c1.2-1.2,1.2-3.2,0-4.4c-1.2-1.2-3.2-1.2-4.4,0C1.3,19.2,0,24.9,0,24.9z"/>
		<g opacity="0.3">
			<path fill="#FFFFFF" d="M23.3,0C18.9,0.2,11.2,1,8.1,4.1C8,4.2,8,4.3,7.9,4.3c3.2-2.9,10.7-3.8,15-3.9c0.9,0,1.7,0.7,1.6,1.6
				c-0.2,4.3-1,11.8-3.9,15c0.1-0.1,0.2-0.2,0.2-0.2c3.1-3.1,3.9-10.8,4.1-15.2C25,0.7,24.2,0,23.3,0z"/>
		</g>
		<g opacity="0.2">
			<path fill="#004E74" d="M8.5,16.4C5.1,13,5,7.4,8.3,3.9C8.2,4,8.2,4,8.1,4.1c-3.5,3.5-3.5,9.2,0,12.7s9.2,3.5,12.7,0
				c0.1-0.1,0.1-0.1,0.2-0.2C17.5,19.9,12,19.8,8.5,16.4z"/>
		</g>
		<path fill="#EB3A28" d="M2.1,22.9c0,0,3.6-0.8,4.4-1.6c0.8-0.8,0.8-2,0-2.8c-0.8-0.8-2-0.8-2.8,0C2.9,19.2,2.1,22.9,2.1,22.9z"/>
		<g opacity="0.2">
			<g>
				<path fill="#004E74" d="M18.5,14.6c-2.2,2.2-5.9,2.3-8.2,0c-2.3-2.3-2.2-6,0-8.2L9.6,5.8C7,8.4,7,12.7,9.6,15.3
					c2.6,2.6,6.9,2.6,9.5,0L18.5,14.6z"/>
				
					<ellipse transform="matrix(-0.7071 0.7071 -0.7071 -0.7071 38.735 7.0487)" fill="#004E74" cx="17.9" cy="11.5" rx="1.8" ry="1.3"/>
				
					<ellipse transform="matrix(-0.7071 0.7071 -0.7071 -0.7071 27.7866 2.5137)" fill="#004E74" cx="13.4" cy="7" rx="1.8" ry="1.3"/>
			</g>
		</g>
		<g>
			<g>
				<path d="M18.7,14.4c-2.2,2.2-5.9,2.3-8.2,0c-2.3-2.3-2.2-6,0-8.2L9.8,5.6c-2.6,2.6-2.6,6.9,0,9.5c2.6,2.6,6.9,2.6,9.5,0
					L18.7,14.4z"/>
				<ellipse transform="matrix(-0.7071 0.7071 -0.7071 -0.7071 38.9426 6.5472)" cx="18.1" cy="11.3" rx="1.8" ry="1.3"/>
				<ellipse transform="matrix(-0.7071 0.7071 -0.7071 -0.7071 27.9942 2.0122)" cx="13.6" cy="6.8" rx="1.8" ry="1.3"/>
			</g>
		</g>
	</g>
</g>
</svg>
