<svg xmlns="http://www.w3.org/2000/svg" xmlns:xlink="http://www.w3.org/1999/xlink" viewBox="0 0 72 110.45"><defs><style>.cls-1,.cls-14,.cls-2,.cls-7{fill:#fff;}.cls-1{filter:url(#luminosity-invert-noclip);}.cls-3{isolation:isolate;}.cls-4{fill:#ccc;}.cls-5{fill:gray;}.cls-16,.cls-5{opacity:0.2;}.cls-14,.cls-17,.cls-20,.cls-6{opacity:0.5;}.cls-7{opacity:0.8;}.cls-8{mask:url(#mask);}.cls-19,.cls-9{mix-blend-mode:screen;}.cls-10,.cls-12,.cls-13{opacity:0.45;}.cls-10{fill:url(#linear-gradient);}.cls-11{mask:url(#mask-2);}.cls-12{fill:url(#linear-gradient-2);}.cls-13{fill:url(#linear-gradient-3);}.cls-15{fill:url(#radial-gradient);}.cls-16,.cls-20{fill:#a10200;}.cls-17{fill:#d42400;}.cls-18,.cls-22{opacity:0.3;}.cls-19,.cls-22{fill:#fd3b00;}.cls-20{mix-blend-mode:multiply;}.cls-21{fill:#fdd910;opacity:0.1;}.cls-23{fill:#e6e6e6;}.cls-24{filter:url(#luminosity-noclip);}</style><filter id="luminosity-invert-noclip" x="7.85" y="57.93" width="58.53" height="35.91" filterUnits="userSpaceOnUse" color-interpolation-filters="sRGB"><feColorMatrix values="-1 0 0 0 1 0 -1 0 0 1 0 0 -1 0 1 0 0 0 1 0" result="invert"/><feFlood flood-color="#fff" result="bg"/><feBlend in="invert" in2="bg"/></filter><mask id="mask" x="7.85" y="57.93" width="58.53" height="35.91" maskUnits="userSpaceOnUse"><path class="cls-1" d="M60.06,66.25a24.09,24.09,0,0,1-48.17,0h-4c0-11.17,58.53-11,58.53,0Z"/></mask><linearGradient id="linear-gradient" x1="35.97" y1="93.84" x2="35.97" y2="65.64" gradientUnits="userSpaceOnUse"><stop offset="0" stop-color="#fff"/><stop offset="0.11" stop-color="#fafafa"/><stop offset="0.23" stop-color="#ececec"/><stop offset="0.36" stop-color="#d4d4d4"/><stop offset="0.5" stop-color="#b3b3b3"/><stop offset="0.65" stop-color="#898989"/><stop offset="0.79" stop-color="#555"/><stop offset="0.94" stop-color="#191919"/><stop offset="1"/></linearGradient><filter id="luminosity-noclip" x="17.46" y="51.3" width="36.92" height="15.39" filterUnits="userSpaceOnUse" color-interpolation-filters="sRGB"><feFlood flood-color="#fff" result="bg"/><feBlend in="SourceGraphic" in2="bg"/></filter><mask id="mask-2" x="17.46" y="51.3" width="36.92" height="15.39" maskUnits="userSpaceOnUse"><g class="cls-24"><ellipse cx="23.11" cy="59" rx="5.03" ry="7.07"/><ellipse cx="48.73" cy="59" rx="5.03" ry="7.07"/></g></mask><linearGradient id="linear-gradient-2" x1="167.71" y1="-263.76" x2="167.71" y2="-279.15" gradientTransform="translate(190.82 -212.45) rotate(180)" xlink:href="#linear-gradient"/><linearGradient id="linear-gradient-3" x1="142.09" y1="-263.76" x2="142.09" y2="-279.15" gradientTransform="translate(190.82 -212.45) rotate(180)" xlink:href="#linear-gradient"/><radialGradient id="radial-gradient" cx="40.07" cy="81.24" r="91.1" gradientTransform="translate(6.06 10.73) scale(0.83 0.83)" gradientUnits="userSpaceOnUse"><stop offset="0.05" stop-color="#efac00"/><stop offset="0.17" stop-color="#eb9100"/><stop offset="0.4" stop-color="#e15600"/><stop offset="0.63" stop-color="#c82400"/><stop offset="0.72" stop-color="#b91200"/><stop offset="0.81" stop-color="#ae0500"/><stop offset="0.9" stop-color="#a00"/></radialGradient></defs><title>Asset 2</title><g class="cls-3"><g id="Layer_2" data-name="Layer 2"><g id="Layer_1-2" data-name="Layer 1"><path class="cls-4" d="M56.82,35.95c-5.85-11-15.15-18-18.87-23C33.8,7.32,36.76,0,36.76,0,28.47,3.65,24.16,12.7,22.9,23.38c-.74,6.34-3.4,10.56-5.45,12.56Z"/><path class="cls-4" d="M67.35,35.95c-.15-5,2.59-10.21,2.59-10.21s-1.9.18-6.52,4.23a13.24,13.24,0,0,0-3.93,6Z"/><path class="cls-4" d="M6.49,35.95h8c-2.35-8-11.94-10.41-11.94-10.41C4,26,6.1,29.95,6.49,35.95Z"/><path class="cls-5" d="M52.68,35.95h4.14c-5.85-11-15.15-18-18.87-23-3-4-2.42-9.58-1.2-12.83-2.1,4.1-6.67,11.25,8.24,27.75A77.77,77.77,0,0,1,52.68,35.95Z"/><g class="cls-6"><path class="cls-7" d="M6.49,35.95h8c-2.35-8-11.94-10.41-11.94-10.41C4,26,6.1,29.95,6.49,35.95Z"/><path class="cls-7" d="M22.68,35.95a15.69,15.69,0,0,0,5.1-12.65,32.49,32.49,0,0,1,9-23.22.47.47,0,0,0,0-.07C28.47,3.63,24.16,12.69,22.9,23.37c-.74,6.34-3.4,10.57-5.45,12.57Z"/></g><g id="Smile"><g id="Mouth"><g class="cls-8"><g class="cls-9"><path class="cls-10" d="M36,93.84A27.68,27.68,0,0,1,8.49,66.25v-.61h5v.61A22.79,22.79,0,0,0,36,88.78,22.79,22.79,0,0,0,58.41,66.25v-.61h5v.61A27.68,27.68,0,0,1,36,93.84Z"/></g></g><path id="Mouth-2" data-name="Mouth" d="M59,66.25C59,78.49,48.7,89.39,36,89.39S12.92,78.49,12.92,66.25H9.1A27.07,27.07,0,0,0,36,93.23a27.07,27.07,0,0,0,26.88-27Z"/></g><g id="Eyes"><g class="cls-11"><g id="Glow"><g class="cls-9"><ellipse class="cls-12" cx="23.11" cy="59" rx="5.65" ry="7.7"/></g><g class="cls-9"><ellipse class="cls-13" cx="48.73" cy="59" rx="5.65" ry="7.7"/></g></g></g><g id="Eyes-2" data-name="Eyes"><ellipse cx="48.73" cy="59" rx="5.03" ry="7.07"/><ellipse cx="23.11" cy="59" rx="5.03" ry="7.07"/></g></g></g><path class="cls-14" d="M6.49,35.95h2.2c-1.05-6-4.25-9.86-6.1-10.4C4,26.09,6.1,29.95,6.49,35.95Z"/><path class="cls-5" d="M12.25,35.95h2.26c-2.34-8-11.92-10.41-11.92-10.4A14,14,0,0,1,12.25,35.95Z"/><path class="cls-5" d="M65.81,35.95h1.54c-.15-5,2.59-10.12,2.59-10.12A19.36,19.36,0,0,0,65.81,35.95Z"/><path class="cls-14" d="M61.73,35.95a21.1,21.1,0,0,1,8.22-10.21s-1.9.18-6.52,4.23a13.24,13.24,0,0,0-3.93,6Z"/><path class="cls-15" d="M67.35,35.95h-7.7c-.9,1-1,4.26-1,4.26a22.89,22.89,0,0,0-2.1-4.26H17.84a14.46,14.46,0,0,0-2.9,2.59c-.1-.93-.29-2.59-.55-2.59H6.46A19.46,19.46,0,0,1,4.62,46.41,38.18,38.18,0,0,0,0,64c0,19.94,12.57,36,36,36,21.33,0,36-16.21,36-36.15.47-7.12-2.12-18.51-4.07-24.55A11,11,0,0,1,67.35,35.95Z"/><path class="cls-16" d="M17.84,35.95a14.46,14.46,0,0,0-2.9,2.59c-.1-.93-.29-2.59-.55-2.59H6.46A19.46,19.46,0,0,1,4.62,46.41,38.18,38.18,0,0,0,0,64c0,8.86,2.49,16.9,7.3,23.18-3.62-8.25-6.64-21.38-1.82-31,5.52-11,12.87-15.17,17.59-20.17Z"/><g id="Smile-2" data-name="Smile"><g id="Mouth-3" data-name="Mouth"><g class="cls-8"><g class="cls-9"><path class="cls-10" d="M36,93.84A27.68,27.68,0,0,1,8.49,66.25v-.61h5v.61A22.79,22.79,0,0,0,36,88.78,22.79,22.79,0,0,0,58.41,66.25v-.61h5v.61A27.68,27.68,0,0,1,36,93.84Z"/></g></g><path id="Mouth-4" data-name="Mouth" d="M59,66.25C59,78.49,48.7,89.39,36,89.39S12.92,78.49,12.92,66.25H9.1A27.07,27.07,0,0,0,36,93.23a27.07,27.07,0,0,0,26.88-27Z"/></g><g id="Eyes-3" data-name="Eyes"><g class="cls-11"><g id="Glow-2" data-name="Glow"><g class="cls-9"><ellipse class="cls-12" cx="23.11" cy="59" rx="5.65" ry="7.7"/></g><g class="cls-9"><ellipse class="cls-13" cx="48.73" cy="59" rx="5.65" ry="7.7"/></g></g></g><g id="Eyes-4" data-name="Eyes"><ellipse cx="48.73" cy="59" rx="5.03" ry="7.07"/><ellipse cx="23.11" cy="59" rx="5.03" ry="7.07"/></g></g></g><path class="cls-17" d="M6.46,35.95A19.46,19.46,0,0,1,4.62,46.41a38.36,38.36,0,0,0,2,39.81C-5,61.89,5.64,53.53,8.34,44.57a17,17,0,0,0,.27-8.62Z"/><g class="cls-18"><path class="cls-19" d="M12.12,35.95a10.26,10.26,0,0,1,.76,3.26,11.8,11.8,0,0,0,2.05-.82c-.1-.93-.29-2.44-.55-2.44Z"/></g><path class="cls-20" d="M59.65,35.95c-.9,1-1,4-1,4S59.74,42,60,42.3c.65-.27.54-3.36,1.93-6.36Z"/><path class="cls-21" d="M67.35,35.95h-7.7c-.9,1-1,4.26-1,4.26a22.89,22.89,0,0,0-2.1-4.26H52.3c12.78,14,17.19,25.32,14,40.7C64.15,87.28,58,91,49.75,97.53c-.1.05-.2,0-.3.07,13.77-5.2,22.49-18.37,22.49-33.75.47-7.12-2.12-18.51-4.07-24.55A11,11,0,0,1,67.35,35.95Z"/><path class="cls-22" d="M67.35,35.95h-1.5c-.37,3,.15,8.1,1.9,15.21,6.35,22.54-1.88,39-19.82,47.06,14.65-4.78,24-18.38,24-34.33.47-7.12-2.12-18.53-4.07-24.57A11.07,11.07,0,0,1,67.35,35.95Z"/><ellipse class="cls-23" cx="36" cy="108.2" rx="24.89" ry="2.25"/></g></g></g></svg>

