<svg xmlns="http://www.w3.org/2000/svg" width="27.676" height="12.916" viewBox="0 0 27.676 12.916">
    <defs>
        <style>
            .cls-1{fill:#0288d1}.cls-2{fill:#fff}
        </style>
    </defs>
    <g id="ic_trial" transform="translate(-285.712 -282.148)">
        <rect id="Rectangle_1130" width="27.676" height="12.916" class="cls-1" data-name="Rectangle 1130" rx="3.45" transform="translate(285.712 282.148)"/>
        <path id="Path_37487" d="M1.622-4.671H.447q-.4 0-.4-.385v-.28q0-.385.4-.385h3.618q.4 0 .4.385v.28q0 .385-.4.385H2.891V-1.1q0 .385-.4.385H2.02q-.4 0-.4-.385zm3.387-.664q0-.385.4-.385h1.405a5.254 5.254 0 0 1 .62.028 1.71 1.71 0 0 1 .388.091 1.412 1.412 0 0 1 .7.535 1.583 1.583 0 0 1 .257.92 1.741 1.741 0 0 1-.047.4 1.618 1.618 0 0 1-.145.385 1.47 1.47 0 0 1-.243.336A1.13 1.13 0 0 1 8-2.783v.014q.022.028.051.07a.61.61 0 0 1 .062.094q.033.059.083.136l.74 1.287a.3.3 0 0 1 .04.332.347.347 0 0 1-.315.129h-.549a.514.514 0 0 1-.472-.272l-.768-1.412h-.595v1.3q0 .385-.4.385h-.47q-.4 0-.4-.385zm1.82 1.881a.7.7 0 0 0 .482-.157.58.58 0 0 0 .178-.458.785.785 0 0 0-.062-.325.41.41 0 0 0-.243-.206 1.284 1.284 0 0 0-.479-.07h-.428v1.217zm2.82-1.881q0-.385.4-.385h.471q.4 0 .4.385V-1.1q0 .385-.4.385h-.471q-.4 0-.4-.385zm3.365-.07a.434.434 0 0 1 .45-.315h.653a.434.434 0 0 1 .45.315l1.5 4.245a.327.327 0 0 1-.018.322.364.364 0 0 1-.308.119h-.479a.435.435 0 0 1-.45-.322l-.218-.727h-1.616l-.218.727a.416.416 0 0 1-.442.322h-.479a.364.364 0 0 1-.308-.119.327.327 0 0 1-.018-.322zM14.3-2.748l-.29-.972q-.036-.119-.069-.266t-.069-.28l-.073-.315h-.015q-.036.161-.073.315-.036.133-.069.28t-.069.266l-.3.972zm2.364-2.587q0-.385.4-.385h.471q.4 0 .4.385v3.566h1.719q.4 0 .4.385v.28q0 .385-.4.385H17.06q-.4 0-.4-.385z" class="cls-2" data-name="Path 37487" transform="translate(289.952 291.72)"/>
    </g>
</svg>
