<svg xmlns="http://www.w3.org/2000/svg" width="46" height="14" viewBox="0 0 46 14">
    <defs>
        <style>
            .cls-1{fill:#0288d1}.cls-2{fill:#fff}
        </style>
    </defs>
    <g id="upgrade" transform="translate(-2128 -1882)">
        <rect id="Rectangle_1271" width="46" height="14" class="cls-1" data-name="Rectangle 1271" rx="3.45" transform="translate(2128 1882)"/>
        <path id="Path_37533" d="M-18.212-5.28a.389.389 0 0 1 .44-.44h.52a.389.389 0 0 1 .44.44v3.18a.861.861 0 0 0 .268.688 1.068 1.068 0 0 0 .724.232 1.068 1.068 0 0 0 .724-.232.861.861 0 0 0 .268-.688v-3.18a.389.389 0 0 1 .44-.44h.52a.389.389 0 0 1 .44.44v3.18a2.233 2.233 0 0 1-.172.884 2.031 2.031 0 0 1-.484.7 2.22 2.22 0 0 1-.752.456 2.776 2.776 0 0 1-.976.16 2.834 2.834 0 0 1-.988-.168 2.213 2.213 0 0 1-.756-.456 2.031 2.031 0 0 1-.484-.7 2.234 2.234 0 0 1-.172-.884zm5.832 0a.389.389 0 0 1 .44-.44H-10a1.949 1.949 0 0 1 .76.144 1.665 1.665 0 0 1 .588.408 1.894 1.894 0 0 1 .38.624 2.224 2.224 0 0 1 .136.792 2.257 2.257 0 0 1-.136.8 1.886 1.886 0 0 1-.38.628 1.71 1.71 0 0 1-.588.412 1.9 1.9 0 0 1-.76.148h-.976V-.44a.389.389 0 0 1-.44.44h-.52a.389.389 0 0 1-.44-.44zm2.088 2.312a.667.667 0 0 0 .548-.22.862.862 0 0 0 .18-.564.842.842 0 0 0-.176-.556.647.647 0 0 0-.528-.212h-.712v1.552zm2.544.144a3.153 3.153 0 0 1 .224-1.2 2.8 2.8 0 0 1 .624-.948 2.87 2.87 0 0 1 .952-.62 3.183 3.183 0 0 1 1.208-.224 3.51 3.51 0 0 1 .64.056 4.582 4.582 0 0 1 .54.132 2.7 2.7 0 0 1 .412.164 2.054 2.054 0 0 1 .26.152.448.448 0 0 1 .2.28.508.508 0 0 1-.092.328l-.208.328a.376.376 0 0 1-.26.2.6.6 0 0 1-.348-.084 3.639 3.639 0 0 0-.444-.192 1.852 1.852 0 0 0-.62-.088 1.873 1.873 0 0 0-.74.132 1.432 1.432 0 0 0-.512.36 1.445 1.445 0 0 0-.3.524 1.984 1.984 0 0 0-.1.616 1.843 1.843 0 0 0 .132.716 1.691 1.691 0 0 0 .352.54A1.51 1.51 0 0 0-5.3-1.3a1.645 1.645 0 0 0 .624.12 1.731 1.731 0 0 0 .528-.072 1.723 1.723 0 0 0 .368-.16 1 1 0 0 0 .28-.232v-.396h-.368a.389.389 0 0 1-.44-.44v-.312a.389.389 0 0 1 .44-.44H-2.7a.389.389 0 0 1 .44.44V-.44A.389.389 0 0 1-2.7 0h-.264a.478.478 0 0 1-.328-.1.315.315 0 0 1-.108-.244v-.072a.033.033 0 0 1 0-.024h-.016a1.586 1.586 0 0 1-.376.272 2.337 2.337 0 0 1-.476.184A2.479 2.479 0 0 1-4.932.1a2.818 2.818 0 0 1-1.06-.2 2.789 2.789 0 0 1-.9-.58 2.752 2.752 0 0 1-.624-.92 3.07 3.07 0 0 1-.232-1.224zM-1.38-5.28a.389.389 0 0 1 .44-.44H.612a5.591 5.591 0 0 1 .684.032 1.83 1.83 0 0 1 .428.1 1.566 1.566 0 0 1 .772.612A1.861 1.861 0 0 1 2.78-3.92a2.062 2.062 0 0 1-.052.46 1.894 1.894 0 0 1-.16.44 1.681 1.681 0 0 1-.268.384 1.248 1.248 0 0 1-.376.276v.016q.024.032.056.08a.7.7 0 0 1 .068.108q.036.068.092.156l.816 1.472A.359.359 0 0 1 3-.148.377.377 0 0 1 2.652 0h-.608a.564.564 0 0 1-.52-.312L.676-1.928H.02V-.44A.389.389 0 0 1-.42 0h-.52a.389.389 0 0 1-.44-.44zM.628-3.128a.756.756 0 0 0 .532-.18.676.676 0 0 0 .2-.524.927.927 0 0 0-.072-.368.458.458 0 0 0-.268-.24 1.371 1.371 0 0 0-.528-.08H.02v1.392zm4.32-2.232a.48.48 0 0 1 .5-.36h.72a.48.48 0 0 1 .5.36L8.316-.5a.386.386 0 0 1-.02.368.394.394 0 0 1-.34.132h-.528a.482.482 0 0 1-.5-.368L6.692-1.2H4.908l-.24.832A.462.462 0 0 1 4.18 0h-.528a.394.394 0 0 1-.34-.136.386.386 0 0 1-.02-.364zm1.416 3.04l-.32-1.112q-.04-.136-.076-.3t-.076-.32l-.08-.36H5.8l-.08.36q-.04.152-.076.32t-.076.3L5.236-2.32zm2.608-2.96a.389.389 0 0 1 .44-.44H11a3.671 3.671 0 0 1 1.22.192 2.569 2.569 0 0 1 .932.556 2.437 2.437 0 0 1 .592.9 3.285 3.285 0 0 1 .208 1.2 3.317 3.317 0 0 1-.208 1.208 2.469 2.469 0 0 1-.592.9 2.585 2.585 0 0 1-.932.564A3.6 3.6 0 0 1 11 0H9.412a.389.389 0 0 1-.44-.44zm1.976 4.08a1.529 1.529 0 0 0 1.144-.424 1.712 1.712 0 0 0 .416-1.248 1.65 1.65 0 0 0-.424-1.236 1.56 1.56 0 0 0-1.136-.412h-.576v3.32zm3.832-4.08a.389.389 0 0 1 .44-.44h2.7a.389.389 0 0 1 .44.44v.32a.389.389 0 0 1-.44.44h-1.74v1.04h1.3a.389.389 0 0 1 .44.44v.32a.389.389 0 0 1-.44.44h-1.3v1.08h1.856a.389.389 0 0 1 .44.44v.32a.389.389 0 0 1-.44.44H15.22a.389.389 0 0 1-.44-.44z" class="cls-2" data-name="Path 37533" transform="translate(2151 1892)"/>
    </g>
</svg>

