<?xml version="1.0" encoding="UTF-8" standalone="no"?>
<!-- Created with Inkscape (http://www.inkscape.org/) -->
<svg xmlns="http://www.w3.org/2000/svg" xml:space="preserve" height="65"
  width="24" version="1.1" viewBox="0 0 24 65">
  <path id="path3045" fill="#00b7f1" d="m11.956 26.56c-6.1 0-11 4.9-11 11s4.9 11 11 11 11-4.9 11-11-4.9-11-11-11zm5 11.5-8 4v-9l8 4v1z"/>
  <path id="path3047" fill="#00b7f1" d="m7.956 11.013v-4.9997c0-2.2 1.8-4 4-4s4 1.8 4 4v1h2v-1c0-3.3-2.7-6-6-6s-6 2.7-6 6v5h-4v14h20v-14h-14zm5 8.8v2.2h-2v-2.2c-1.2-0.4-2-1.5-2-2.8 0-1.7 1.3-3 3-3s3 1.3 3 3c0 1.3-0.8 2.4-2 2.8z"/>
  <g id="g3947" fill="#00b7f1" transform="translate(-.26612 44.766)">
    <path id="path3949" d="m9.5 17.8 3.5-11.8c0.2-0.9 1.3-1.2 2-0.7l8.5 6.2c0.8 0.6 0.7 1.8-0.2 2.2l-12 5.7c-1 0.4-2.1-0.5-1.8-1.6z"/>
    <path id="path3951" d="m4.1 7.1h5.3c0.5 0 0.9-0.4 0.9-0.9s-0.4-0.9-0.9-0.9h-5.3c-0.5 0-0.9 0.4-0.9 0.9s0.4 0.9 0.9 0.9z"/>
    <path id="path3953" d="m6.1 15c0.5 0 0.9-0.4 0.9-0.9s-0.4-0.9-0.9-0.9h-4.6c-0.5 0-0.9 0.4-0.9 0.9s0.4 0.9 0.9 0.9m4.6-1.7"/>
    <path id="path3955" d="m8.4 10.2c0-0.5-0.4-0.9-0.9-0.9h-3.3c-0.5 0-0.9 0.4-0.9 0.9s0.4 0.9 0.9 0.9h3.3c0.5 0 0.9-0.4 0.9-0.9z"/>
    <path id="path3957" d="m4.8 17.1h-1.3c-0.5 0-0.9 0.4-0.9 0.9s0.4 0.9 0.9 0.9h1.3c0.5 0 0.9-0.4 0.9-0.9s-0.4-0.9-0.9-0.9z"/>
  </g>
</svg>
