<svg xmlns="http://www.w3.org/2000/svg" width="32" height="32" viewBox="0 0 32 32">
    <defs>
        <style>
            .cls-1{fill:none}.cls-2{fill:#0288d1}.cls-3{fill:#fff}
        </style>
    </defs>
    <g id="ic_plus_32" transform="translate(-1161 -492)">
        <path id="Path_37483" d="M0 0h32v32H0z" class="cls-1" data-name="Path 37483" transform="translate(1161 492)"/>
        <g id="Group_1592" data-name="Group 1592" transform="translate(558 -526)">
            <g id="Group_1591" data-name="Group 1591" transform="translate(603 1026)">
                <rect id="Rectangle_1115" width="32" height="16" class="cls-2" data-name="Rectangle 1115" rx="4"/>
            </g>
            <path id="Path_37439" d="M-9.456-5.2a.444.444 0 0 1 .5-.5h2.213a2.228 2.228 0 0 1 .869.165 1.9 1.9 0 0 1 .672.466 2.165 2.165 0 0 1 .434.713 2.542 2.542 0 0 1 .155.905 2.58 2.58 0 0 1-.155.91 2.155 2.155 0 0 1-.432.711 1.955 1.955 0 0 1-.672.471 2.175 2.175 0 0 1-.869.169h-1.115V.328a.444.444 0 0 1-.5.5h-.594a.444.444 0 0 1-.5-.5zm2.386 2.639a.762.762 0 0 0 .626-.251.985.985 0 0 0 .206-.645.962.962 0 0 0-.2-.635.739.739 0 0 0-.6-.242h-.814v1.774zM-3.6-5.2a.444.444 0 0 1 .5-.5h.6a.444.444 0 0 1 .5.5v4.659H.171a.444.444 0 0 1 .5.5v.369a.444.444 0 0 1-.5.5h-3.264a.444.444 0 0 1-.5-.5zm4.937 0a.444.444 0 0 1 .5-.5h.594a.444.444 0 0 1 .5.5v3.63a.984.984 0 0 0 .306.786 1.221 1.221 0 0 0 .827.265A1.221 1.221 0 0 0 4.9-.787a.984.984 0 0 0 .306-.786V-5.2a.444.444 0 0 1 .5-.5H6.3a.444.444 0 0 1 .5.5v3.63a2.553 2.553 0 0 1-.2 1.01 2.321 2.321 0 0 1-.553.8A2.537 2.537 0 0 1 5.2.753a3.173 3.173 0 0 1-1.115.188 3.238 3.238 0 0 1-1.13-.188 2.529 2.529 0 0 1-.864-.521 2.321 2.321 0 0 1-.553-.8 2.553 2.553 0 0 1-.2-1.01zM8.117.291a.7.7 0 0 1-.128-.123.415.415 0 0 1-.078-.155.389.389 0 0 1 0-.187.664.664 0 0 1 .114-.226l.283-.411a.458.458 0 0 1 .3-.224A.648.648 0 0 1 9-.934l.2.11q.114.064.265.133a1.947 1.947 0 0 0 .335.114 1.617 1.617 0 0 0 .393.046.849.849 0 0 0 .526-.133.4.4 0 0 0 .169-.325.472.472 0 0 0-.215-.389 2.786 2.786 0 0 0-.535-.3q-.32-.142-.695-.3a3.4 3.4 0 0 1-.695-.4 2.116 2.116 0 0 1-.535-.581A1.582 1.582 0 0 1 8-3.814a1.861 1.861 0 0 1 .178-.818 1.922 1.922 0 0 1 .489-.635 2.177 2.177 0 0 1 .741-.407 2.931 2.931 0 0 1 .923-.142 3.281 3.281 0 0 1 1.051.16 2.948 2.948 0 0 1 .713.325.506.506 0 0 1 .229.315.608.608 0 0 1-.073.37l-.219.43q-.137.265-.315.27a.754.754 0 0 1-.37-.1q-.229-.11-.471-.206a1.52 1.52 0 0 0-.562-.1.883.883 0 0 0-.549.133.4.4 0 0 0-.165.325.468.468 0 0 0 .215.393 2.79 2.79 0 0 0 .535.293q.32.137.695.288a3.21 3.21 0 0 1 .695.384 2.055 2.055 0 0 1 .535.576 1.582 1.582 0 0 1 .215.855 2.052 2.052 0 0 1-.151.782 1.854 1.854 0 0 1-.443.649 2.142 2.142 0 0 1-.722.443 2.721 2.721 0 0 1-.978.165 3.328 3.328 0 0 1-.667-.057 4.288 4.288 0 0 1-.585-.16 3.612 3.612 0 0 1-.485-.21 2.353 2.353 0 0 1-.342-.216z" class="cls-3" data-name="Path 37439" transform="translate(617.649 1036.387)"/>
        </g>
    </g>
</svg>
